<svg width="20" height="19" viewBox="0 0 20 19" fill="none" xmlns="http://www.w3.org/2000/svg">
<path d="M19.9607 13.6255L17.407 16.1304H11.0242L8.47046 18.8452H6.13062V15.0864H0.811279V2.97705L2.93921 0.680176H19.9607V13.6255ZM4.00269 2.35107C3.76868 2.35107 3.57696 2.53844 3.5769 2.76807V12.9985C3.5769 13.2282 3.76864 13.4165 4.00269 13.4165H7.40698V15.2954C7.40698 15.452 7.4919 15.5934 7.6355 15.6665C7.69933 15.6978 7.76361 15.7134 7.83276 15.7134C7.91777 15.7133 8.00295 15.6871 8.07202 15.6401L11.3699 13.4165H15.2791C15.3908 13.4165 15.503 13.3747 15.5828 13.2964L17.9226 10.9995C18.0023 10.9213 18.0456 10.8173 18.0457 10.7026V2.76807C18.0456 2.5385 17.8538 2.35117 17.6199 2.35107H4.00269Z" fill="white"/>
<path d="M13.79 9.76274V5.58691H12.0878V9.76274H13.79ZM9.53465 9.76274V5.58691H7.83252V9.76274H9.53465Z" fill="white"/>
</svg>
